<svg width="595" height="115" viewBox="0 0 595 115" fill="none" xmlns="http://www.w3.org/2000/svg">
<path d="M593.736 109.882C594.074 110.8 593.395 111.774 592.417 111.774H569.862C569.275 111.774 568.749 111.409 568.545 110.858L561.401 91.6134C561.196 91.0624 560.671 90.6968 560.083 90.6968H520.682C520.094 90.6968 519.568 91.0624 519.364 91.6134L512.22 110.858C512.016 111.409 511.49 111.774 510.902 111.774H488.191C487.212 111.774 486.533 110.799 486.872 109.881L527.189 0.91794C527.393 0.366252 527.919 0 528.507 0H552.256C552.845 0 553.372 0.367051 553.575 0.919602L593.736 109.882ZM541.772 38.3479C541.32 37.127 539.595 37.1234 539.137 38.3424L528.72 66.1233C528.375 67.0423 529.054 68.0226 530.036 68.0226H550.738C551.717 68.0226 552.396 67.0469 552.056 66.1288L541.772 38.3479Z" fill="url(#paint0_linear_287_2341)"/>
<path d="M437.228 0C447.66 0 457.241 2.50161 465.97 7.50484C474.806 12.4016 481.778 19.1613 486.888 27.7839C492.104 36.3 494.712 45.7742 494.712 56.2065C494.712 66.6387 492.157 76.1129 487.048 84.6291C481.938 93.0388 474.965 99.692 466.13 104.589C457.294 109.379 447.66 111.774 437.228 111.774H392.806C392.03 111.774 391.401 111.145 391.401 110.368V1.40576C391.401 0.629382 392.03 0 392.806 0H437.228ZM437.228 88.9404C443.296 88.9404 448.885 87.5033 453.994 84.6291C459.21 81.6484 463.309 77.6565 466.289 72.6533C469.27 67.65 470.76 62.1145 470.76 56.0468C470.76 49.9791 469.27 44.3904 466.289 39.2807C463.309 34.171 459.21 30.1258 453.994 27.1452C448.885 24.1645 443.296 22.6742 437.228 22.6742H416.758C415.982 22.6742 415.352 23.3036 415.352 24.08V87.5346C415.352 88.311 415.982 88.9404 416.758 88.9404H437.228Z" fill="url(#paint1_linear_287_2341)"/>
<path d="M72.6995 31.5531C72.9145 30.8221 73.5854 30.3201 74.3473 30.3201H87.9453C88.894 30.3201 89.663 31.0891 89.663 32.0378V110.845C89.663 111.794 88.894 112.563 87.9453 112.563H73.622C72.843 112.563 72.1616 112.039 71.9618 111.286L70.3207 105.1C63.3149 111.344 54.1768 115 43.668 115C18.9952 115 0.566772 96.2665 0.566772 71.4414C0.566772 46.6163 18.9952 28.0356 43.668 28.0356C54.3291 28.0356 63.6195 31.8431 70.7776 38.0875L72.6995 31.5531ZM45.4956 93.982C58.4412 93.982 67.8839 84.387 67.8839 71.4414C67.8839 58.4958 58.4412 48.9009 45.4956 48.9009C32.55 48.9009 23.1074 58.4958 23.1074 71.4414C23.1074 84.2347 32.55 93.982 45.4956 93.982Z" fill="#393D4E"/>
<path d="M161.663 31.4572C161.908 30.7751 162.555 30.3201 163.28 30.3201H182.541C183.754 30.3201 184.584 31.5431 184.137 32.6706L152.906 111.478C152.647 112.133 152.014 112.563 151.31 112.563H133.071C132.372 112.563 131.744 112.14 131.48 111.493L99.3734 32.6858C98.9131 31.5561 99.7442 30.3201 100.964 30.3201H120.967C121.688 30.3201 122.333 30.7713 122.58 31.4493L142.272 85.4531L161.663 31.4572Z" fill="#393D4E"/>
<path d="M258.09 30.3201H272.973C273.922 30.3201 274.691 31.0891 274.691 32.0378V110.845C274.691 111.794 273.922 112.563 272.973 112.563H258.65C257.871 112.563 257.19 112.039 256.99 111.286L255.349 105.1C248.343 111.344 239.205 115 228.696 115C204.023 115 185.595 96.2665 185.595 71.4414C185.595 46.6163 204.023 28.0356 228.696 28.0356C239.357 28.0356 248.648 31.8431 255.806 38.0875L258.09 30.3201ZM230.524 93.982C243.469 93.982 252.912 84.387 252.912 71.4414C252.912 58.4958 243.469 48.9009 230.524 48.9009C217.578 48.9009 208.135 58.4958 208.135 71.4414C208.135 84.2347 217.578 93.982 230.524 93.982Z" fill="#393D4E"/>
<path d="M304.082 22.2634C298.148 22.2634 293.337 17.4528 293.337 11.5186C293.337 5.58447 298.148 0.773871 304.082 0.773871H304.676C310.61 0.773871 315.421 5.58447 315.421 11.5186C315.421 17.4528 310.61 22.2634 304.676 22.2634H304.082ZM294.903 112.563C293.954 112.563 293.185 111.794 293.185 110.845V32.0378C293.185 31.0891 293.954 30.3201 294.903 30.3201H313.703C314.652 30.3201 315.421 31.0891 315.421 32.0378V110.845C315.421 111.794 314.652 112.563 313.703 112.563H294.903Z" fill="#393D4E"/>
<path d="M355.953 85.5548C355.953 87.493 356.352 88.8612 357.15 89.6592C358.062 90.3433 359.488 90.6853 361.426 90.6853C362.392 90.6853 363.292 90.6853 364.606 90.6853C365.92 90.6853 366.727 91.8634 366.727 92.9423V110.012L366.727 110.09C366.729 111.334 365.776 112.438 364.26 112.438C361.382 112.438 358.994 112.563 355.953 112.563L351.845 112.562C346.03 112.562 341.527 111.023 338.335 107.945C335.256 104.867 333.717 99.3943 333.717 91.5276V2.49149C333.717 1.54287 334.486 0.773865 335.435 0.773857L354.236 0.773702C355.184 0.773695 355.953 1.54271 355.953 2.49134V85.5548Z" fill="#393D4E"/>
<defs>
<linearGradient id="paint0_linear_287_2341" x1="491.176" y1="-35.9658" x2="580.563" y2="170.424" gradientUnits="userSpaceOnUse">
<stop stop-color="#15A6DC"/>
<stop offset="1" stop-color="#0781DC"/>
</linearGradient>
<linearGradient id="paint1_linear_287_2341" x1="396.177" y1="-35.9658" x2="488.416" y2="167.274" gradientUnits="userSpaceOnUse">
<stop stop-color="#15A6DC"/>
<stop offset="1" stop-color="#0781DC"/>
</linearGradient>
</defs>
</svg>
